<svg xmlns="http://www.w3.org/2000/svg" viewBox="0 0 564.61 243.96"><defs><style>.cls-1{fill:#ed1a3b;}</style></defs><g id="Layer_2" data-name="Layer 2"><g id="Layer_1-2" data-name="Layer 1"><path class="cls-1" d="M383.84,212.77a5.59,5.59,0,0,0-3.21-3.08,5.72,5.72,0,0,0-4.48.19c-8.86,4.26-17.64,6.59-24.73,6.59-20.11,0-26.9-8.84-26.9-35.1v-102H379a5.69,5.69,0,0,0,5.69-5.67h0V59A5.69,5.69,0,0,0,379,53.33h-54.4V5.7a5.68,5.68,0,0,0-1.87-4.23A5.5,5.5,0,0,0,318.31,0l-17.18,1.8A5.64,5.64,0,0,0,296,7.47V53.33H264.1A5.69,5.69,0,0,0,258.42,59V73.69a5.68,5.68,0,0,0,5.68,5.68H296v102c0,42.12,18.13,62.59,55.43,62.59,10.84,0,22.55-3.11,35.74-9.52a5.68,5.68,0,0,0,2.77-7.33Z"/><path class="cls-1" d="M491.09,132.08,484.81,131c-25.32-4.47-46.33-9.53-46.86-26.43a18.64,18.64,0,0,1,5.52-14.12c7.63-7.88,22.88-12.58,40.77-12.58h1.36c19.11,0,35.14,2.92,51.37,17.18a5.66,5.66,0,0,0,7.89-.36l10.71-11.47a5.69,5.69,0,0,0-.25-8c-17.78-16.69-41.25-25.15-69.68-25.15h-1.32c-25.69,0-47.91,7.58-60.95,20.74-9.18,9.28-13.75,20.84-13.63,34.39.43,41,40.94,47.72,73.51,53.17,32.28,5.17,53.38,10,52.85,29.23-1,25.43-34.9,28.17-49.44,28.17-25.61,0-48.09-10.32-60.11-27.61a5.73,5.73,0,0,0-4-2.4,5.63,5.63,0,0,0-4.47,1.39L405.2,198.6a5.68,5.68,0,0,0-1,7.36c15.5,23.81,46.19,38,82,38,18,0,76.94-4,78.35-54.83,1.9-44.38-41.71-51.7-73.57-57"/><path class="cls-1" d="M205.54,244H31.39A31.42,31.42,0,0,1,0,212.57V38.41A31.42,31.42,0,0,1,31.39,7H205.54a31.43,31.43,0,0,1,31.4,31.39V212.57A31.43,31.43,0,0,1,205.54,244ZM36.06,36.09a7,7,0,0,0-7,7v164.8a7,7,0,0,0,7,7H200.87a7,7,0,0,0,7-7V43.09a7,7,0,0,0-7-7Z"/></g></g></svg>